<?xml version="1.0" encoding="UTF-8"?>
<svg width="25px" height="25px" viewBox="0 0 25 25" version="1.1" xmlns="http://www.w3.org/2000/svg" xmlns:xlink="http://www.w3.org/1999/xlink">
    <!-- Generator: Sketch 63.1 (92452) - https://sketch.com -->
    <title>Shape</title>
    <desc>Created with Sketch.</desc>
    <g id="Page-1" stroke="none" stroke-width="1" fill="none" fill-rule="evenodd">
        <g id="Article" transform="translate(-48.000000, -1353.000000)" fill="currentColor">
            <g id="Share" transform="translate(48.000000, 1208.000000)">
                <path d="M12.5,170 C5.596,170 0,164.404 0,157.5 C0,150.596 5.596,145 12.5,145 C19.404,145 25,150.596 25,157.5 C25,164.404 19.404,170 12.5,170 Z M13.673,153.99 C13.673,153.38 13.733,153.055 14.646,153.055 L15.864,153.055 L15.864,150.717 L13.914,150.717 C11.571,150.717 10.747,151.851 10.747,153.757 L10.747,155.161 L9.287,155.161 L9.287,157.501 L10.747,157.501 L10.747,164.281 L13.669,164.281 L13.669,157.5 L15.619,157.5 L15.877,155.16 L13.667,155.16 L13.672,153.99 L13.673,153.99 Z" id="Shape"></path>
            </g>
        </g>
    </g>
</svg>
