<?xml version="1.0" encoding="UTF-8"?>
<svg width="25px" height="25px" viewBox="0 0 25 25" version="1.1" xmlns="http://www.w3.org/2000/svg" xmlns:xlink="http://www.w3.org/1999/xlink">
    <!-- Generator: Sketch 63.1 (92452) - https://sketch.com -->
    <title>Shape</title>
    <desc>Created with Sketch.</desc>
    <g id="Page-1" stroke="none" stroke-width="1" fill="none" fill-rule="evenodd">
        <g id="Article" transform="translate(-48.000000, -1308.000000)" fill="currentColor">
            <g id="Share" transform="translate(48.000000, 1208.000000)">
                <path d="M12.5,125 C5.596,125 0,119.404 0,112.5 C0,105.596 5.596,100 12.5,100 C19.404,100 25,105.596 25,112.5 C25,119.404 19.404,125 12.5,125 Z M19.59,107.355 C18.996,107.685 18.337,107.925 17.636,108.055 C17.076,107.495 16.274,107.145 15.389,107.145 C13.689,107.145 12.309,108.435 12.309,110.029 C12.309,110.254 12.336,110.475 12.389,110.685 C9.829,110.565 7.562,109.415 6.043,107.67 C5.779,108.098 5.627,108.593 5.627,109.122 C5.627,110.122 6.17,111.006 6.997,111.524 C6.492,111.509 6.017,111.379 5.602,111.164 L5.602,111.199 C5.602,112.596 6.662,113.763 8.072,114.027 C7.812,114.093 7.542,114.127 7.26,114.127 C7.063,114.127 6.87,114.11 6.682,114.077 C7.074,115.223 8.212,116.057 9.558,116.08 C8.504,116.855 7.178,117.316 5.734,117.316 C5.486,117.316 5.241,117.303 5,117.276 C6.362,118.094 7.98,118.572 9.72,118.572 C15.382,118.572 18.48,114.175 18.48,110.364 C18.48,110.238 18.475,110.114 18.47,109.989 C19.07,109.581 19.593,109.074 20.006,108.495 C19.454,108.725 18.86,108.88 18.238,108.95 C18.874,108.593 19.361,108.028 19.591,107.355 L19.59,107.355 Z" id="Shape"></path>
            </g>
        </g>
    </g>
</svg>
