<svg xmlns="http://www.w3.org/2000/svg" xmlns:xlink="http://www.w3.org/1999/xlink"><symbol viewBox="0 0 25 18" id="arrow-right" xmlns="http://www.w3.org/2000/svg"><path d="M15.788.273l8.94 8.775-8.94 8.68-1.652-1.718 5.83-5.818H.727V7.808h19.24l-5.83-5.818z" fill="currentColor" fill-rule="nonzero"/></symbol><symbol viewBox="0 0 100 100" id="caret" xmlns="http://www.w3.org/2000/svg"><path fill="#000" d="M0 30h100L50 80z" fill-rule="evenodd"/></symbol><symbol viewBox="0 0 100 100" id="checkmark" xmlns="http://www.w3.org/2000/svg"><path fill="currentColor" fill-rule="nonzero" d="M78.527 20L90 31.45 42.157 79.2 10 47.106l11.473-11.45 20.683 20.642z"/></symbol><symbol viewBox="0 0 20 20" id="dashboard" xmlns="http://www.w3.org/2000/svg"><path fill="none" d="M0 0h20v20H0z"/><path d="M3.76 16h12.48A7.998 7.998 0 0010 3a7.998 7.998 0 00-6.24 13zM10 4c.55 0 1 .45 1 1s-.45 1-1 1-1-.45-1-1 .45-1 1-1zM6 6c.55 0 1 .45 1 1s-.45 1-1 1-1-.45-1-1 .45-1 1-1zm8 0c.55 0 1 .45 1 1s-.45 1-1 1-1-.45-1-1 .45-1 1-1zm-5.37 5.55L12 7v6c0 1.1-.9 2-2 2s-2-.9-2-2c0-.57.24-1.08.63-1.45zM4 10c.55 0 1 .45 1 1s-.45 1-1 1-1-.45-1-1 .45-1 1-1zm12 0c.55 0 1 .45 1 1s-.45 1-1 1-1-.45-1-1 .45-1 1-1zm-5 3c0-.55-.45-1-1-1s-1 .45-1 1 .45 1 1 1 1-.45 1-1z" fill="currentColor"/></symbol><symbol viewBox="0 0 20 20" id="edit" xmlns="http://www.w3.org/2000/svg"><path fill="none" d="M0 0h20v20H0z"/><path d="M13.89 3.39l2.71 2.72c.46.46.42 1.24.03 1.64l-8.01 8.02-5.56 1.16 1.16-5.58s7.6-7.63 7.99-8.03c.39-.39 1.22-.39 1.68.07zm-2.73 2.79l-5.59 5.61 1.11 1.11 5.54-5.65zm-2.97 8.23l5.58-5.6-1.07-1.08-5.59 5.6z" fill="currentColor"/></symbol><symbol viewBox="0 0 25 25" id="facebook" xmlns="http://www.w3.org/2000/svg"><path d="M12.5 25C5.596 25 0 19.404 0 12.5S5.596 0 12.5 0 25 5.596 25 12.5 19.404 25 12.5 25zm1.173-16.01c0-.61.06-.935.973-.935h1.218V5.717h-1.95c-2.343 0-3.167 1.134-3.167 3.04v1.404h-1.46v2.34h1.46v6.78h2.922V12.5h1.95l.258-2.34h-2.21l.005-1.17h.001z" fill="currentColor" fill-rule="evenodd"/></symbol><symbol viewBox="0 0 25 25" id="twitter" xmlns="http://www.w3.org/2000/svg"><path d="M12.5 25C5.596 25 0 19.404 0 12.5S5.596 0 12.5 0 25 5.596 25 12.5 19.404 25 12.5 25zm7.09-17.645c-.594.33-1.253.57-1.954.7a3.174 3.174 0 00-2.247-.91c-1.7 0-3.08 1.29-3.08 2.884 0 .225.027.446.08.656-2.56-.12-4.827-1.27-6.346-3.015a2.753 2.753 0 00-.416 1.452c0 1 .543 1.884 1.37 2.402a3.24 3.24 0 01-1.395-.36v.035c0 1.397 1.06 2.564 2.47 2.828a3.34 3.34 0 01-1.39.05c.392 1.146 1.53 1.98 2.876 2.003a6.436 6.436 0 01-3.824 1.236c-.248 0-.493-.013-.734-.04a9.146 9.146 0 004.72 1.296c5.662 0 8.76-4.397 8.76-8.208 0-.126-.005-.25-.01-.375a6.097 6.097 0 001.536-1.494 6.476 6.476 0 01-1.768.455 2.933 2.933 0 001.353-1.595h-.001z" fill="currentColor" fill-rule="evenodd"/></symbol></svg>