<?xml version="1.0" encoding="UTF-8"?>
<svg width="197px" height="70px" viewBox="0 0 197 70" version="1.1" xmlns="http://www.w3.org/2000/svg" xmlns:xlink="http://www.w3.org/1999/xlink">
    <!-- Generator: Sketch 63.1 (92452) - https://sketch.com -->
    <title>Logo Copy 2</title>
    <desc>Created with Sketch.</desc>
    <g id="Symbols" stroke="none" stroke-width="1" fill="none" fill-rule="evenodd">
        <g id="Header-Menu" transform="translate(-206.000000, -60.000000)" fill="#354E4D">
            <g id="Menu">
                <g id="Logo-Copy-2" transform="translate(206.000000, 60.000000)">
                    <path d="M34.8015445,38.6693194 C32.2313351,43.8713089 27.5622251,48.6741885 20.7942147,53.0764921 L7.69578534,53.0764921 C9.28123037,55.4352356 11.1690314,57.5733508 13.3027487,59.4365969 L18.7074084,59.4365969 C22.8198168,58.8142932 28.1845288,54.8693717 34.8015445,47.6025654 C41.173377,54.5417277 46.232801,58.5309948 50.7820681,59.4365969 L55.9276178,59.4365969 C58.0613351,57.5733508 59.9487696,55.4352356 61.5345812,53.0764921 L48.7165183,53.0764921 C41.9100262,48.5187958 37.509555,43.9775916 34.8015445,38.6693194" id="Fill-1"></path>
                    <path d="M34.8015445,31.1233194 C31.4957853,38.3688691 27.5941099,43.3494974 23.0957853,46.0655707 L4.13274869,46.0655707 C4.67698953,47.5659895 5.32897906,49.014733 6.07882199,50.4022723 L21.6734293,50.4022723 C27.1246335,47.2269843 31.5064136,41.944733 34.8015445,35.1998115 C38.3693455,41.7911728 42.7346335,46.9957277 47.8482984,50.4022723 L63.151178,50.4022723 C63.9013874,49.014733 64.5530105,47.5659895 65.0972513,46.0655707 L46.4395026,46.0655707 C42.4883508,43.2556754 38.5712827,38.3512775 34.8015445,31.1233194" id="Fill-3"></path>
                    <path d="M34.8015445,18.6575654 C32.4116492,27.0462042 29.6867801,32.5923298 26.6273037,35.2963089 L2.20060209,35.2963089 C2.20719895,36.0736387 2.24128272,36.8454712 2.30212042,37.6092408 L25.8682984,37.6092408 C29.4481937,34.4640052 32.4259424,28.992644 34.8015445,21.1951571 C36.972644,27.9309162 39.9368325,33.4022775 43.693377,37.6092408 L66.9282461,37.6092408 C66.9887173,36.8454712 67.022801,36.0736387 67.0293979,35.2963089 L42.9424346,35.2963089 C40.3641623,32.8151571 37.650288,27.2690314 34.8015445,18.6575654" id="Fill-5"></path>
                    <path d="M38.8816283,22.7922199 L64.6489581,22.7922199 C64.490267,22.4030052 64.3242461,22.0174555 64.1512618,21.6359372 L38.5063403,21.6359372 L38.8816283,22.7922199 Z" id="Fill-7"></path>
                    <path d="M40.3370419,27.2735393 L66.1014398,27.2735393 C66.0061518,26.8850576 65.904267,26.4995079 65.7950524,26.1172565 L39.9613874,26.1172565 L40.3370419,27.2735393 Z" id="Fill-9"></path>
                    <path d="M34.8015445,24.4448429 C31.8553141,31.9201832 28.5851047,37.1995026 24.9909162,40.283534 L2.62609948,40.283534 C2.78625654,41.262801 2.99002618,42.2270419 3.23557592,43.1744241 L24.0424346,43.1744241 C28.9941099,38.6335864 32.5802356,33.4788743 34.8015445,27.7117539 C37.2233246,33.3187173 40.7900262,38.4730628 45.5009162,43.1744241 L65.9944241,43.1744241 C66.2399738,42.2270419 66.4441099,41.262801 66.604267,40.283534 L44.5619634,40.283534 C41.2602356,37.2236911 37.9354188,32.0195026 34.8015445,24.4448429" id="Fill-11"></path>
                    <path d="M28.2835916,66.8090628 L40.9466283,66.8090628 C41.9387225,66.6129895 42.9143246,66.3711047 43.8716021,66.0867068 L25.3586178,66.0867068 C26.3155288,66.3711047 27.2914974,66.6129895 28.2835916,66.8090628" id="Fill-13"></path>
                    <path d="M34.0252408,12.7455707 L11.056445,12.7455707 C10.6998482,13.1223246 10.3524136,13.5082408 10.0141414,13.9022199 L33.6459215,13.9022199 L34.0252408,12.7455707 Z" id="Fill-15"></path>
                    <path d="M32.5788063,17.1545445 L7.55692147,17.1545445 C7.30587435,17.5345969 7.06252356,17.9197801 6.82686911,18.3108272 L32.1994869,18.3108272 L32.5788063,17.1545445 Z" id="Fill-17"></path>
                    <path d="M31.1088796,21.6358639 L5.07914136,21.6358639 C4.90579058,22.0173822 4.73976963,22.4029319 4.58144503,22.7921466 L30.7295602,22.7921466 L31.1088796,21.6358639 Z" id="Fill-19"></path>
                    <path d="M45.1939424,4.3611466 L24.0359843,4.3611466 C23.0504869,4.7016178 22.0866126,5.08790052 21.1461937,5.51779581 L48.083733,5.51779581 C47.1436806,5.08790052 46.1794398,4.7016178 45.1939424,4.3611466" id="Fill-21"></path>
                    <path d="M53.1424241,8.40883246 L16.0878691,8.40883246 C15.556822,8.77935602 15.0382356,9.16490576 14.531377,9.56548168 L54.6989162,9.56548168 C54.1920576,9.16490576 53.6731047,8.77935602 53.1424241,8.40883246" id="Fill-23"></path>
                    <path d="M29.638623,26.1171466 L3.43480105,26.1171466 C3.32595288,26.4993979 3.22370157,26.8853141 3.1287801,27.2734293 L29.2589372,27.2734293 L29.638623,26.1171466 Z" id="Fill-25"></path>
                    <path d="M15.5676702,61.2436597 L53.6623298,61.2436597 C53.9859424,61.0080052 54.3044241,60.7672199 54.6185079,60.5209372 L14.6114921,60.5209372 C14.9255759,60.7672199 15.2444241,61.0080052 15.5676702,61.2436597" id="Fill-27"></path>
                    <path d="M18.3383874,63.051089 L50.8916859,63.051089 C51.2918953,62.8176335 51.6862408,62.5768482 52.075089,62.3276335 L17.1549843,62.3276335 C17.5438325,62.5768482 17.9385445,62.8176335 18.3383874,63.051089" id="Fill-29"></path>
                    <path d="M37.4263979,18.3109372 L62.4032042,18.3109372 C62.1679162,17.9198901 61.9245654,17.5343403 61.6731518,17.1546545 L37.0507435,17.1546545 L37.4263979,18.3109372 Z" id="Fill-31"></path>
                    <path d="M21.7762304,64.7858429 L47.4537696,64.7858429 C47.9804188,64.5578848 48.5004712,64.3170995 49.0120942,64.0623874 L20.2179058,64.0623874 C20.7298953,64.3170995 21.2492147,64.5578848 21.7762304,64.7858429" id="Fill-33"></path>
                    <path d="M26.5848272,59.469178 L42.8427853,59.4563508 C39.4677592,55.9600157 37.0063979,52.7066649 34.8015812,49.0890209 C32.6015288,52.7605393 29.862733,56.2209581 26.5848272,59.469178" id="Fill-35"></path>
                    <path d="M34.8015445,10.0142147 C34.3808115,17.4463089 31.3422251,26.4554188 28.0936387,30.8262042 L28.0973037,30.8148429 L2.46850785,30.8148429 C2.41903141,31.1981937 2.37615183,31.5837435 2.3402356,31.9714921 L27.6930628,31.9714921 L27.6692408,32.0436911 C30.7730628,29.3639005 34.2111257,19.6940052 34.8015445,12.5748953 C35.4161518,19.7200262 39.0301309,29.2814398 41.9272513,32.0436911 L41.9034293,31.9714921 L66.8901309,31.9714921 C66.8542147,31.5837435 66.8109686,31.1981937 66.7614921,30.8148429 L41.5032199,30.8148429 C38.5742147,26.4176702 35.1662042,17.4485079 34.8015445,10.0142147" id="Fill-37"></path>
                    <path d="M35.6191885,12.7455707 L35.9944764,13.9022199 L59.2161518,13.9022199 C58.8778796,13.5082408 58.530445,13.1223246 58.1738482,12.7455707 L35.6191885,12.7455707 Z" id="Fill-39"></path>
                    <path d="M34.6114817,68.7299215 C15.9881832,68.7299215 0.891272251,53.632644 0.891272251,35.0093455 C0.891272251,16.3856806 15.9881832,1.28876963 34.6114817,1.28876963 C53.2347801,1.28876963 68.3316911,16.3856806 68.3316911,35.0093455 C68.3316911,53.632644 53.2347801,68.7299215 34.6114817,68.7299215 M34.7042042,0.366675393 C15.5373979,0.366675393 -3.66492146e-05,15.9037435 -3.66492146e-05,35.0709162 C-3.66492146e-05,54.2377225 15.5373979,69.7755236 34.7042042,69.7755236 C53.8710105,69.7755236 69.4088115,54.2377225 69.4088115,35.0709162 C69.4088115,15.9037435 53.8710105,0.366675393 34.7042042,0.366675393" id="Fill-41"></path>
                    <path d="M195.227504,38.3313617 L195.227504,41.3063043 C194.111572,40.6354372 193.02505,40.3002837 191.967659,40.3000037 C191.018948,40.3000037 190.234938,40.5847582 189.614508,41.1531472 C188.936097,41.7730553 188.596892,42.6043592 188.596892,43.6467791 C188.596892,45.1416703 189.231607,46.7236397 190.500756,48.3935275 C191.620116,49.8690002 192.829791,50.9183696 194.129315,51.5414022 L194.374029,51.6532246 L194.374029,44.6749193 C194.374029,44.2812469 194.356102,43.9749328 194.319408,43.756257 C194.264788,43.4342632 194.16718,43.1478521 194.026584,42.8965375 L193.937067,42.7499564 L196.89132,42.7499564 C196.715695,43.0711102 196.599172,43.4171835 196.54063,43.7892964 C196.519822,43.9296937 196.506732,44.1205185 196.50095,44.361567 L196.497494,44.6749193 L196.497494,52.7250439 C196.497494,53.2133545 196.580965,53.7383443 196.748467,54.3000135 C196.800006,54.48201 196.883477,54.7149655 197,55 C194.060593,54.1978155 191.59176,52.7541633 189.59266,50.6687636 C187.470595,48.4520464 186.408722,46.0242132 186.408722,43.3847042 C186.408722,41.8097346 186.890221,40.5626386 187.852937,39.6436964 C188.717897,38.8201829 189.834946,38.3843291 191.204085,38.3359017 L191.463752,38.3313617 L195.227504,38.3313617 Z M128.287729,38.0251316 C128.921883,38.0251316 129.479849,38.0906504 129.961908,38.2219678 C130.3739,38.3345256 130.810587,38.5273105 131.271793,38.8004987 L131.504438,38.9437939 L130.126049,40.8250776 L129.611323,40.4724944 C129.483561,40.386816 129.3996,40.3329871 129.359405,40.3110075 C129.082663,40.1578505 128.812923,40.0814119 128.550466,40.0814119 C127.791665,40.0814119 127.411845,40.3731663 127.411845,40.956395 C127.411845,41.3425076 127.75105,41.8532177 128.429461,42.4874055 C129.115435,43.1218732 129.811772,43.756341 130.519874,44.3905288 C131.10305,44.9521979 131.577265,45.466268 131.94168,45.932739 C132.415895,46.5453672 132.776949,47.1619153 133.024841,47.7812633 C133.309986,48.4955295 133.451719,49.2397552 133.451719,50.0125403 C133.451719,51.4998716 132.94109,52.7102882 131.919832,53.6437902 C130.942831,54.533053 129.731943,54.9776844 128.287729,54.9776844 C127.630605,54.9776844 127.028943,54.9121657 126.481901,54.7808482 C125.942421,54.6570906 125.391457,54.4711742 124.829569,54.222819 L124.584528,54.1079899 C124.317625,53.9786391 123.985118,53.8057637 123.586824,53.5897266 L123.166594,53.3593157 L124.895394,50.9533221 C125.238241,51.5219911 125.719739,51.9666225 126.339608,52.2872164 C126.96704,52.6080902 127.6166,52.7688071 128.287729,52.7688071 C129.126359,52.7688071 129.797207,52.5394915 130.300553,52.0797404 C130.855158,51.5690302 131.131901,50.8362844 131.131901,49.8815028 C131.131901,49.3271135 131.012296,48.7909238 130.770847,48.2734938 C130.559649,47.8064628 130.253496,47.3511916 129.851827,46.9062802 C129.553237,46.5708467 129.133641,46.1738143 128.593602,45.7143432 C128.061125,45.2473122 127.528928,44.7772013 126.996171,44.3031704 C126.39815,43.7345014 125.96763,43.238631 125.704893,42.8155592 C125.354764,42.2468901 125.179699,41.6563815 125.179699,41.0437534 C125.179699,40.0374528 125.490054,39.2683076 126.109923,38.7360379 C126.664528,38.262007 127.389996,38.0254116 128.287729,38.0251316 Z M139.797746,38.1999882 C140.228265,38.1999882 140.633015,38.210908 141.012275,38.2327476 L142.509432,38.3147069 C142.706645,38.3242143 142.84248,38.3296183 142.916849,38.3309683 L142.948911,38.3313057 L142.948911,41.1967704 C142.445565,40.8618969 141.982834,40.6283814 141.559317,40.4967839 C141.143644,40.3657464 140.665787,40.2999477 140.126027,40.2999477 C139.185439,40.2999477 138.422997,40.6320213 137.839822,41.2953285 C137.263088,41.9519158 136.974862,42.822979 136.974862,43.909638 C136.974862,45.4479284 137.45608,46.9103401 138.419076,48.2951934 C139.251264,49.4910503 140.308655,50.4791513 141.59209,51.2594962 C142.688266,51.9261447 143.670249,52.2820564 144.537357,52.3265484 L144.721407,52.3313155 L144.721407,54.8689065 C142.993168,54.4525546 141.399098,53.7604079 139.940599,52.7907866 C138.357173,51.7329671 137.120796,50.4791513 136.231187,49.0282193 C135.23878,47.4165704 134.742716,45.6666041 134.742716,43.7780406 C134.742716,42.1666717 135.220853,40.8364174 136.176006,39.7858776 C137.139002,38.728898 138.346249,38.2002682 139.797746,38.1999882 Z M103.078236,38.3314177 C103.004849,38.5282539 102.968715,38.73237 102.968715,38.9437659 C102.968715,39.1554418 102.997846,39.3486381 103.056388,39.5236347 C103.114369,39.6913515 103.194759,39.8481484 103.296997,39.9937456 C103.636062,40.4859761 103.987575,40.9884439 104.351416,41.501149 L106.579286,44.5983968 L107.060749,45.2654839 L107.060749,40.2563806 C107.060749,39.8624282 107.042542,39.5563941 107.006129,39.3374383 C106.951509,39.0156778 106.853511,38.7291111 106.712785,38.4779002 L106.623227,38.3314177 L109.599328,38.3314177 C109.431266,38.6374518 109.318104,38.9513257 109.260123,39.2719196 C109.221678,39.507115 109.197887,39.7505003 109.188394,40.0020755 L109.183654,40.2563806 L109.183654,52.8121782 C109.183654,53.1915709 109.201581,53.4906051 109.238274,53.7092809 C109.29071,54.0006993 109.378281,54.2784987 109.500846,54.5422492 L109.599328,54.7374211 L106.623227,54.7374211 C106.82014,54.4453867 106.947587,54.1144331 107.006129,53.7423203 C107.032138,53.5861233 107.048716,53.3832129 107.056168,53.1337932 L107.060749,52.8121782 L107.060749,48.8093755 L102.22476,42.0718655 L102.22476,52.8121782 C102.22476,53.1915709 102.242967,53.4906051 102.279381,53.7092809 C102.33204,54.0006993 102.419477,54.2784987 102.541979,54.5422492 L102.640434,54.7374211 L99.6643333,54.7374211 C99.8612461,54.4453867 99.9889733,54.1144331 100.047235,53.7423203 C100.078446,53.5548839 100.096076,53.3001802 100.100829,52.978562 L100.102135,40.2563806 C100.102135,39.8624282 100.083648,39.5563941 100.047235,39.3374383 C99.9926147,39.0156778 99.8946173,38.7291111 99.7538912,38.4779002 L99.6643333,38.3314177 L103.078236,38.3314177 Z M177.853042,38.3314177 C177.779655,38.5282539 177.742961,38.73237 177.742961,38.9437659 C177.742961,39.1554418 177.772652,39.3486381 177.830634,39.5236347 C177.889175,39.6913515 177.969565,39.8481484 178.071243,39.9937456 C178.410518,40.4859761 178.762241,40.9884439 179.126174,41.501149 L181.353917,44.5983968 L181.834995,45.2654839 L181.834995,40.2563806 L181.830585,39.9402185 C181.823219,39.69466 181.806584,39.4938353 181.780375,39.3374383 C181.725754,39.0156778 181.628146,38.7291111 181.48755,38.4779002 L181.398033,38.3314177 L184.373574,38.3314177 C184.206072,38.6374518 184.09291,38.9513257 184.034368,39.2719196 C183.996134,39.507115 183.972553,39.7505003 183.963152,40.0020755 L183.95846,40.2563806 L183.95846,52.8121782 C183.95846,53.1915709 183.976387,53.4906051 184.01252,53.7092809 C184.064956,54.0006993 184.152527,54.2784987 184.275092,54.5422492 L184.373574,54.7374211 L181.398033,54.7374211 C181.594946,54.4453867 181.722393,54.1144331 181.780375,53.7423203 C181.806584,53.5861233 181.823219,53.3832129 181.830585,53.1337932 L181.834995,52.8121782 L181.834995,48.8093755 L176.999566,42.0718655 L176.999566,52.8121782 C176.999566,53.1915709 177.017493,53.4906051 177.053626,53.7092809 C177.106286,54.0006993 177.193723,54.2784987 177.316224,54.5422492 L177.41468,54.7374211 L174.439139,54.7374211 C174.636052,54.4453867 174.763499,54.1144331 174.821481,53.7423203 C174.852932,53.5548839 174.870802,53.3001802 174.875265,52.978562 L174.876381,40.2563806 C174.876381,39.8624282 174.858174,39.5563941 174.821481,39.3374383 C174.76686,39.0156778 174.669252,38.7291111 174.528656,38.4779002 L174.439139,38.3314177 L177.853042,38.3314177 Z M155.093924,38.2876545 L155.368145,38.2876545 L155.490373,38.2946432 C155.564677,38.3016319 155.658725,38.313862 155.772335,38.3313337 C155.604833,38.6230881 155.491671,38.9218423 155.433689,39.2281564 C155.395035,39.4524321 155.371034,39.6889925 155.361449,39.9378377 L155.356661,40.1907778 L155.356661,52.8123742 C155.356661,53.1914869 155.375148,53.4905211 155.411281,53.7094769 C155.463716,54.0008953 155.551647,54.2785155 155.674068,54.5423376 L155.772335,54.7376171 L152.796234,54.7376171 C152.993147,54.4455827 153.121154,54.1143491 153.179135,53.7422363 C153.210587,53.5550399 153.228457,53.3001648 153.233273,52.978669 L153.234596,52.8123742 L153.234596,49.7500733 L148.463311,49.7500733 L148.44223,51.5637273 L148.44223,51.5637273 L148.442023,51.6638364 C148.442023,52.3783826 148.471154,52.9876508 148.529135,53.4905211 C148.579314,53.9213128 148.672091,54.2887457 148.80782,54.5915856 L148.879265,54.7376171 L145.816052,54.7376171 C146.02725,54.4237431 146.180467,54.1031493 146.275702,53.7749956 C146.357044,53.5124727 146.405939,53.2547881 146.422243,53.0015117 L146.428358,52.8123742 L146.428358,50.3405819 C146.428358,48.4447385 146.822184,46.5634548 147.609835,44.6967309 C148.404769,42.823007 149.480928,41.3065563 150.837749,40.1468187 C152.213117,38.9725213 153.55882,38.354847 154.874859,38.2928435 L155.093924,38.2876545 Z M172.053385,38.3314177 C171.885883,38.6374518 171.772721,38.9513257 171.714739,39.2719196 C171.676085,39.507115 171.652084,39.7505003 171.642499,40.0020755 L171.637711,40.2563806 L171.637711,52.8121782 C171.637711,53.1915709 171.656198,53.4906051 171.692331,53.7092809 C171.744767,54.0006993 171.832697,54.2784987 171.955118,54.5422492 L172.053385,54.7374211 L169.077284,54.7374211 C169.274197,54.4453867 169.402204,54.1144331 169.460186,53.7423203 C169.491637,53.5548839 169.509301,53.3001802 169.514058,52.978562 L169.515366,52.8121782 L169.515366,40.2563806 L169.510845,39.9402185 C169.503316,39.69466 169.486395,39.4938353 169.460186,39.3374383 C169.405565,39.0156778 169.307957,38.7291111 169.167036,38.4779002 L169.077284,38.3314177 L172.053385,38.3314177 Z M81.1511656,38.3312217 C80.7967225,38.9612095 80.6017788,39.5440239 80.5663344,40.0794606 L80.5604271,40.2561846 L80.5604271,52.615146 L84.6087645,52.615146 C85.1338747,52.615146 85.7061768,52.4557087 86.3260791,52.1370382 L86.5344768,52.0249174 L86.5344768,54.7375051 L78,54.7375051 C78.1969128,54.4454707 78.3246401,54.1142371 78.3831817,53.7421243 C78.4141532,53.5549279 78.4317483,53.3002585 78.4364961,52.9786451 L78.4378019,40.2561846 C78.4378019,39.8625122 78.4193151,39.5561981 78.3831817,39.3375223 C78.3283281,39.0157618 78.2304864,38.7291951 78.0896565,38.4778222 L78,38.3312217 L81.1511656,38.3312217 Z M165.619741,38.3313057 C166.218322,38.3313057 166.681054,38.4480635 167.009335,38.681299 C167.381313,38.9436539 167.567301,39.3376063 167.567301,39.8625962 C167.567301,40.4989475 167.368451,41.1352989 166.97054,41.7716502 L166.845194,41.9625556 L161.309227,50.2095165 L161.309227,46.5998261 L161.790165,45.8998396 L161.790165,45.8998396 L162.264678,45.215833 L162.264678,45.215833 L163.791754,42.9765182 C164.089805,42.5362853 164.356474,42.1398855 164.591761,41.787559 C164.723129,41.5907228 164.817804,41.4193661 164.875786,41.2737689 C164.963178,41.0693729 165.007154,40.8764566 165.007154,40.6936201 C165.007154,40.5186235 164.948613,40.4057857 164.83209,40.3548267 C164.738695,40.3111475 164.564219,40.286188 164.309544,40.2797718 L164.175527,40.2781081 L160.718488,40.2781081 L160.718488,52.8123462 C160.718488,53.1914589 160.736415,53.4907731 160.772548,53.7094489 C160.825208,54.0008673 160.912645,54.2784875 161.035146,54.5423096 L161.133602,54.7375891 L158.158061,54.7375891 C158.355254,54.4455547 158.482701,54.1143211 158.540683,53.7422083 C158.566692,53.5862113 158.583413,53.3832152 158.590844,53.1338323 L158.595303,52.8123462 L158.595303,40.2562686 L158.590844,39.9402355 C158.583413,39.6947137 158.566692,39.4938033 158.540683,39.3376063 C158.485829,39.0158458 158.388182,38.7292791 158.247579,38.4779062 L158.158061,38.3313057 L165.619741,38.3313057 Z M96.6007001,38.2876545 L96.8743613,38.2876545 L96.9966254,38.2946432 C97.0709828,38.3016319 97.1651649,38.313862 97.279111,38.3313337 C97.1110488,38.6230881 96.9981671,38.9218423 96.9399055,39.2281564 C96.9014613,39.4524321 96.87767,39.6889925 96.8681771,39.9378377 L96.8634373,40.1907778 L96.8634373,52.8123742 C96.8634373,53.1914869 96.8813639,53.4905211 96.9180575,53.7094769 C96.9704929,54.0008953 97.0580644,54.2785155 97.1806288,54.5423376 L97.279111,54.7376171 L94.3030102,54.7376171 C94.499923,54.4455827 94.6276503,54.1143491 94.6859118,53.7422363 C94.7171234,53.5550399 94.7347527,53.3001648 94.7395055,52.978669 L94.7408121,49.7500733 L89.9700875,49.7500733 L89.9484477,51.5637273 L89.9484477,51.5637273 L89.9482394,51.6638364 C89.9482394,52.3783826 89.9773702,52.9876508 90.0359119,53.4905211 C90.0856103,53.9213128 90.1783188,54.2887457 90.3143904,54.5915856 L90.3860414,54.7376171 L87.3222681,54.7376171 C87.5337464,54.4237431 87.6866829,54.1031493 87.7819182,53.7749956 C87.8634843,53.5124727 87.9122448,53.2547881 87.9287731,53.0015117 L87.9351348,52.8123742 L87.9351348,50.3405819 C87.9351348,48.4447385 88.3289605,46.5634548 89.1166118,44.6967309 C89.9115459,42.823007 90.9874238,41.3065563 92.3445258,40.1468187 C93.7193627,38.9725213 95.0650379,38.354847 96.3815512,38.2928435 L96.6007001,38.2876545 Z M111.984438,38.1781207 C113.516325,38.3239978 115.080703,38.9257062 116.678134,39.9829658 C118.275565,41.0405054 119.577767,42.3494802 120.584459,43.90961 C121.678544,45.6080573 122.225586,47.3367439 122.225586,49.09399 C122.225586,50.8727957 121.80263,52.2579289 120.956437,53.2499498 C120.164397,54.1863295 119.131257,54.6809045 117.857487,54.7329672 L117.630207,54.7375611 L111.984438,54.7375611 C112.181631,54.4455267 112.309078,54.1142931 112.36762,53.7421803 C112.398591,53.5549839 112.416392,53.3001088 112.421023,52.978613 L112.42224,40.1467627 C112.42224,39.7606501 112.403753,39.454336 112.36762,39.2281004 C112.301796,38.834708 112.173788,38.4847147 111.984438,38.1781207 Z M114.282128,41.1096641 L114.282128,52.8562774 L117.258229,52.8562774 C118.169966,52.8562774 118.895995,52.5572431 119.435474,51.9588947 C120.026213,51.3025874 120.321722,50.3548057 120.321722,49.1158296 C120.321722,47.3947028 119.673002,45.7178151 118.374162,44.0846067 C117.141706,42.5384765 115.777601,41.5467356 114.282128,41.1096641 Z M153.497053,40.3436549 C152.614166,40.7230475 151.778617,41.4157542 150.990966,42.4217748 C150.327401,43.2679184 149.75823,44.2520994 149.284015,45.3748778 C148.921249,46.2238214 148.67047,47.0039624 148.531874,47.7147108 L148.485159,47.9779875 L153.497053,47.9779875 L153.497053,40.3436549 Z M95.0032692,40.3436549 C94.1203826,40.7230475 93.2853938,41.4157542 92.4977425,42.4217748 C91.8336168,43.2679184 91.2647264,44.2520994 90.7907911,45.3748778 C90.4275278,46.2238214 90.1766933,47.0039624 90.0384843,47.7147108 L89.9919356,47.9779875 L95.0032692,47.9779875 L95.0032692,40.3436549 Z M104.040924,15.0655747 C104.675639,15.0655747 105.233605,15.1313735 105.715103,15.2624109 C106.127816,15.3749688 106.564606,15.5677536 107.025474,15.8409418 L107.257914,15.984237 L105.879244,17.8655207 L105.232595,17.4255347 C105.177007,17.3894095 105.137194,17.3647224 105.113161,17.3514506 C104.836138,17.1982936 104.566118,17.121855 104.303661,17.121855 C103.544861,17.121855 103.1656,17.4136094 103.1656,17.9968382 C103.1656,18.3835107 103.504806,18.8936609 104.183217,19.5281286 C104.86891,20.1623164 105.565248,20.7967841 106.27307,21.4312519 C106.856526,21.992641 107.330461,22.5067111 107.695436,22.9731821 C108.169371,23.5858103 108.530425,24.2020784 108.778596,24.8217064 C109.063182,25.5365326 109.205474,26.2801983 109.205474,27.0529834 C109.205474,28.5403147 108.694565,29.7510113 107.673588,30.6842333 C106.696026,31.5737761 105.485418,32.0181276 104.040924,32.0184075 C103.384641,32.0184075 102.782699,31.9528888 102.235656,31.8215713 C101.695617,31.6978137 101.144933,31.5118973 100.583605,31.2638221 L100.338373,31.148881 C100.071269,31.019463 99.7385596,30.8466212 99.3403665,30.6304161 L98.9203501,30.3997588 L100.64915,27.9934852 C100.991716,28.5621543 101.473214,29.0073457 102.093364,29.3279395 C102.720516,29.6488133 103.369796,29.8092502 104.040924,29.8092502 C104.879554,29.8092502 105.550402,29.5793746 106.054309,29.1201835 C106.608354,28.6097533 106.885656,27.8770075 106.885936,26.9216659 C106.885936,26.3675566 106.765492,25.8316469 106.524883,25.3139369 C106.313125,24.8474659 106.006691,24.3916347 105.605583,23.9467233 C105.306432,23.6112898 104.886837,23.2142575 104.347357,22.7545063 C103.8146,22.2880353 103.282123,21.8176444 102.749927,21.3436136 C102.151625,20.7749445 101.721386,20.2793541 101.458929,19.8562823 C101.1088,19.2873333 100.933735,18.6968247 100.933735,18.0841965 C100.933735,17.0781759 101.243529,16.3090307 101.863679,15.776481 C102.418004,15.3027302 103.143472,15.0661347 104.040924,15.0655747 Z M93.2308016,15.3719168 C93.0627394,15.6782309 92.9495776,15.9918249 92.8915961,16.3124187 C92.8531519,16.5478241 92.8292031,16.7912619 92.8196314,17.0427321 L92.8148478,17.2968797 L92.8148478,29.8529573 C92.8148478,30.23235 92.8330545,30.5311042 92.8697481,30.74978 C92.9221835,31.0416464 93.009755,31.3193562 93.1323194,31.5829095 L93.2308016,31.7779202 L90.2547008,31.7779202 C90.4516136,31.4861658 90.5790608,31.1549322 90.6376024,30.7825394 C90.6685739,30.595103 90.6863748,30.3408108 90.691005,30.01931 L90.6922226,17.2968797 C90.6922226,16.9032073 90.6737358,16.5968932 90.6376024,16.3782174 C90.5829822,16.0562236 90.4849849,15.7698125 90.3442587,15.5184979 L90.2547008,15.3719168 L93.2308016,15.3719168 Z M129.994596,15.3719168 L129.994596,18.0842245 C129.636904,17.8585488 129.352318,17.7090317 129.14112,17.6359531 C128.903432,17.5545947 128.606683,17.5086184 128.251047,17.4967901 L128.068323,17.4937159 L123.910465,17.4937159 L123.910465,18.368699 L129.381449,18.368699 L129.381449,20.490498 L123.910465,20.490498 L123.910465,29.6561211 L128.987343,29.6561211 C129.469402,29.6561211 129.881434,29.5830425 130.224281,29.4371654 L130.354259,29.3717503 C130.434196,29.3296613 130.543697,29.2702241 130.682787,29.1934633 L130.913616,29.0653325 L130.913616,31.7779202 L121.350319,31.7779202 C121.547231,31.4861658 121.675239,31.1549322 121.73322,30.7825394 C121.764672,30.595103 121.782335,30.3408108 121.78674,30.01931 L121.78784,17.2968797 C121.78784,16.9032073 121.769914,16.5968932 121.73322,16.3782174 C121.6786,16.0562236 121.580992,15.7698125 121.440071,15.5184979 L121.350319,15.3719168 L129.994596,15.3719168 Z M141.30756,15.3719168 L141.30756,18.0842245 C140.935583,17.8585488 140.650997,17.7129516 140.454085,17.6468729 C140.211095,17.5619412 139.922588,17.5125922 139.588402,17.4981776 L139.382408,17.4937159 L135.22399,17.4937159 L135.22399,18.368699 L140.432797,18.368699 L140.432797,20.490498 L135.22399,20.490498 L135.22399,29.8529573 C135.22399,30.23235 135.271608,30.5638636 135.366283,30.8480581 C135.430497,31.0396444 135.552827,31.3009013 135.733838,31.6318286 L135.815009,31.7779202 L132.663843,31.7779202 C132.860756,31.4861658 132.988763,31.1549322 133.047305,30.7825394 C133.078276,30.595103 133.095872,30.3408108 133.100267,30.01931 L133.101365,17.2968797 C133.101365,16.9032073 133.083438,16.5968932 133.047305,16.3782174 C132.992218,16.0562236 132.894532,15.7698125 132.753598,15.5184979 L132.663843,15.3719168 L141.30756,15.3719168 Z M151.844414,15.3282937 C151.924803,15.3282937 152.059813,15.3428534 152.249724,15.3719728 C152.081101,15.6637272 151.9685,15.9624814 151.909958,16.2687955 C151.871724,16.4930712 151.847828,16.7296316 151.838269,16.9783587 L151.83349,17.2311369 L151.83349,29.8527333 C151.83349,30.232126 151.851977,30.5308803 151.88811,30.749836 C151.940993,31.0414784 152.028296,31.3191434 152.151022,31.5828312 L152.249724,31.7779762 L149.273063,31.7779762 C149.469975,31.4862218 149.597983,31.1547082 149.656524,30.7825954 C149.687496,30.595159 149.705297,30.3408668 149.709751,30.0191897 L149.710865,26.7904324 L144.94014,26.7904324 L144.918292,28.7044755 L144.918292,28.7044755 C144.918292,29.4190217 144.947983,30.02773 145.005964,30.5308803 C145.056143,30.9621519 145.14892,31.329242 145.285001,31.6319741 L145.356654,31.7779762 L142.292321,31.7779762 C142.504079,31.4643822 142.657296,31.1437884 142.751971,30.8153548 C142.833761,30.5528318 142.882745,30.2951472 142.899068,30.0418708 L142.905187,29.8527333 L142.905187,27.380941 C142.905187,25.4853776 143.299013,23.6043739 144.086664,21.73737 C144.882159,19.8636461 145.957756,18.3471954 147.314578,17.1874578 C148.689946,16.0134257 150.035649,15.3955141 151.351687,15.3334849 L151.570753,15.3282937 L151.844414,15.3282937 Z M78,15.2187038 C79.5318866,15.364861 81.0965454,15.9662894 82.6939762,17.0235489 C84.2914071,18.0808085 85.5936087,19.3897833 86.6003011,20.9499132 C87.6943858,22.6489204 88.2414281,24.377047 88.2414281,26.1342931 C88.2414281,27.9136588 87.8181916,29.298792 86.9722787,30.2902529 C86.17971,31.2271615 85.1470397,31.7212664 83.8733241,31.7732752 L83.6460484,31.7778642 L78,31.7778642 C78.1971929,31.4861098 78.3246401,31.1548762 78.3831817,30.7824834 C78.4141532,30.595047 78.4317483,30.3407548 78.4364961,30.019254 L78.4378019,17.1873458 C78.4378019,16.8012332 78.4193151,16.4949191 78.3831817,16.2686835 C78.3173574,15.8750111 78.1896301,15.5250179 78,15.2187038 Z M120.277942,15 C120.277942,15.6781469 120.012124,16.2543758 119.479366,16.7281266 C118.997938,17.1559817 118.446136,17.3876189 117.823529,17.4232539 L117.651971,17.4281131 L115.901323,17.4281131 L115.901323,29.8528733 C115.901323,30.232266 115.92009,30.5310203 115.955943,30.749696 C116.008603,31.0415624 116.096398,31.3192722 116.2189,31.5828256 L116.317277,31.7778362 L113.341456,31.7778362 C113.538369,31.4860818 113.665816,31.1548482 113.724358,30.7824554 C113.755569,30.595019 113.772993,30.3407268 113.777687,30.019226 L113.778978,17.3625944 L111.787721,17.3625944 C111.262359,17.3625944 110.690032,17.5220317 110.070331,17.8409064 L109.862009,17.953103 L109.862009,15.3718328 L118.243269,15.3718328 C118.564156,15.3718328 118.882533,15.3417278 119.198687,15.2809443 L119.47407,15.2202883 C119.572431,15.1951018 119.84028,15.1215643 120.277942,15 Z M154.63433,15.3718328 L158.048232,15.3718328 C157.975405,15.568669 157.938712,15.7730651 157.938712,15.984461 C157.938712,16.1958569 157.968403,16.3890532 158.026945,16.5640498 C158.084926,16.7320466 158.165316,16.8888435 158.266993,17.0344407 C158.606269,17.5264612 158.957991,18.029034 159.321688,18.5416866 L161.549598,21.6391619 L162.031586,22.306179 L162.031586,17.2967957 L162.027009,16.9807626 C162.019398,16.7352408 162.002335,16.5343304 161.976125,16.3781334 C161.921505,16.0563729 161.823897,15.7698063 161.682976,15.5184333 L161.593224,15.3718328 L164.569324,15.3718328 C164.401823,15.6781469 164.288661,15.9920209 164.230119,16.3126147 C164.192095,16.5478101 164.168094,16.7911954 164.158469,17.0426525 L164.153651,17.2967957 L164.153651,29.8528733 C164.153651,30.232266 164.172138,30.5310203 164.208271,30.749696 C164.260706,31.0415624 164.348636,31.3192722 164.471057,31.5828256 L164.569324,31.7778362 L161.593224,31.7778362 C161.790136,31.4860818 161.918144,31.1548482 161.976125,30.7824554 C162.007577,30.595019 162.025446,30.3407268 162.030263,30.019226 L162.031586,29.8528733 L162.031586,25.8497906 L157.194757,19.1125606 L157.194757,29.8528733 C157.194757,30.232266 157.213244,30.5310203 157.249377,30.749696 C157.302036,31.0415624 157.389832,31.3192722 157.51219,31.5828256 L157.61043,31.7778362 L154.63433,31.7778362 C154.831243,31.4860818 154.95953,31.1548482 155.017511,30.7824554 C155.048723,30.595019 155.066558,30.3407268 155.07137,30.019226 L155.072692,29.8528733 L155.072692,17.2967957 L155.068122,16.9807626 C155.060527,16.7352408 155.043521,16.5343304 155.017511,16.3781334 C154.962658,16.0563729 154.865011,15.7698063 154.724083,15.5184333 L154.63433,15.3718328 Z M173.147609,15.3499932 C175.234101,15.3499932 176.864304,16.0608995 178.038498,17.4827121 C179.212973,18.9045246 179.80007,20.9137659 179.80007,23.5093158 C179.80007,26.0466268 179.184122,28.059228 177.951386,29.5465593 C176.71837,31.0341705 175.051474,31.7778362 172.950697,31.7778362 C170.95972,31.7778362 169.369292,31.05965 168.179972,29.6232778 C166.998495,28.1793456 166.407476,26.2510229 166.407476,23.8374694 C166.407476,21.0739228 166.991212,18.9706034 168.158124,17.5266712 C169.332878,16.0757392 170.995854,15.3505532 173.147609,15.3499932 Z M173.016241,17.0126012 C171.477352,17.0126012 170.277668,17.6795483 169.41691,19.0140025 C168.636261,20.2246992 168.245796,21.788749 168.245796,23.706152 C168.245796,25.4709579 168.654467,26.9434495 169.47125,28.1247467 C170.346573,29.3934022 171.52833,30.02787 173.016241,30.02787 C174.584821,30.02787 175.821198,29.353363 176.725373,28.004349 C177.549998,26.7723728 177.96175,25.2156028 177.96175,23.3343191 C177.96175,21.4824349 177.52787,19.976624 176.659829,18.8171663 C175.755374,17.6140295 174.540845,17.0126012 173.016241,17.0126012 Z M80.29797,18.1499672 L80.29797,29.8965805 L83.2740708,29.8965805 C84.1855279,29.8965805 84.9115565,29.5978263 85.4513161,28.9997578 C86.0420546,28.3434505 86.3375639,27.3956688 86.3375639,26.1561327 C86.3372838,24.4355659 85.6882838,22.7581183 84.3900035,21.1249098 C83.1569875,19.5793396 81.7928829,18.5873188 80.29797,18.1499672 Z M149.973322,17.384294 C149.090995,17.7636867 148.255446,18.4561133 147.467795,19.4624139 C146.804229,20.3085575 146.235059,21.2927386 145.760844,22.4155169 C145.398078,23.2647094 145.147299,24.0446568 145.009096,24.7553591 L144.962548,25.0186266 L149.973322,25.0186266 L149.973322,17.384294 Z" id="Shape"></path>
                </g>
            </g>
        </g>
    </g>
</svg>