<?xml version="1.0" encoding="UTF-8"?>
<svg width="70px" height="70px" viewBox="0 0 70 70" version="1.1" xmlns="http://www.w3.org/2000/svg" xmlns:xlink="http://www.w3.org/1999/xlink">
    <!-- Generator: Sketch 63.1 (92452) - https://sketch.com -->
    <title>Logo Copy 2</title>
    <desc>Created with Sketch.</desc>
    <g id="Page-1" stroke="none" stroke-width="1" fill="none" fill-rule="evenodd">
        <g id="Logo-Copy-2" fill="#FFFFFF">
            <path d="M34.8015445,38.6693194 C32.2313351,43.8713089 27.5622251,48.6741885 20.7942147,53.0764921 L7.69578534,53.0764921 C9.28123037,55.4352356 11.1690314,57.5733508 13.3027487,59.4365969 L18.7074084,59.4365969 C22.8198168,58.8142932 28.1845288,54.8693717 34.8015445,47.6025654 C41.173377,54.5417277 46.232801,58.5309948 50.7820681,59.4365969 L55.9276178,59.4365969 C58.0613351,57.5733508 59.9487696,55.4352356 61.5345812,53.0764921 L48.7165183,53.0764921 C41.9100262,48.5187958 37.509555,43.9775916 34.8015445,38.6693194" id="Fill-1"></path>
            <path d="M34.8015445,31.1233194 C31.4957853,38.3688691 27.5941099,43.3494974 23.0957853,46.0655707 L4.13274869,46.0655707 C4.67698953,47.5659895 5.32897906,49.014733 6.07882199,50.4022723 L21.6734293,50.4022723 C27.1246335,47.2269843 31.5064136,41.944733 34.8015445,35.1998115 C38.3693455,41.7911728 42.7346335,46.9957277 47.8482984,50.4022723 L63.151178,50.4022723 C63.9013874,49.014733 64.5530105,47.5659895 65.0972513,46.0655707 L46.4395026,46.0655707 C42.4883508,43.2556754 38.5712827,38.3512775 34.8015445,31.1233194" id="Fill-3"></path>
            <path d="M34.8015445,18.6575654 C32.4116492,27.0462042 29.6867801,32.5923298 26.6273037,35.2963089 L2.20060209,35.2963089 C2.20719895,36.0736387 2.24128272,36.8454712 2.30212042,37.6092408 L25.8682984,37.6092408 C29.4481937,34.4640052 32.4259424,28.992644 34.8015445,21.1951571 C36.972644,27.9309162 39.9368325,33.4022775 43.693377,37.6092408 L66.9282461,37.6092408 C66.9887173,36.8454712 67.022801,36.0736387 67.0293979,35.2963089 L42.9424346,35.2963089 C40.3641623,32.8151571 37.650288,27.2690314 34.8015445,18.6575654" id="Fill-5"></path>
            <path d="M38.8816283,22.7922199 L64.6489581,22.7922199 C64.490267,22.4030052 64.3242461,22.0174555 64.1512618,21.6359372 L38.5063403,21.6359372 L38.8816283,22.7922199 Z" id="Fill-7"></path>
            <path d="M40.3370419,27.2735393 L66.1014398,27.2735393 C66.0061518,26.8850576 65.904267,26.4995079 65.7950524,26.1172565 L39.9613874,26.1172565 L40.3370419,27.2735393 Z" id="Fill-9"></path>
            <path d="M34.8015445,24.4448429 C31.8553141,31.9201832 28.5851047,37.1995026 24.9909162,40.283534 L2.62609948,40.283534 C2.78625654,41.262801 2.99002618,42.2270419 3.23557592,43.1744241 L24.0424346,43.1744241 C28.9941099,38.6335864 32.5802356,33.4788743 34.8015445,27.7117539 C37.2233246,33.3187173 40.7900262,38.4730628 45.5009162,43.1744241 L65.9944241,43.1744241 C66.2399738,42.2270419 66.4441099,41.262801 66.604267,40.283534 L44.5619634,40.283534 C41.2602356,37.2236911 37.9354188,32.0195026 34.8015445,24.4448429" id="Fill-11"></path>
            <path d="M28.2835916,66.8090628 L40.9466283,66.8090628 C41.9387225,66.6129895 42.9143246,66.3711047 43.8716021,66.0867068 L25.3586178,66.0867068 C26.3155288,66.3711047 27.2914974,66.6129895 28.2835916,66.8090628" id="Fill-13"></path>
            <path d="M34.0252408,12.7455707 L11.056445,12.7455707 C10.6998482,13.1223246 10.3524136,13.5082408 10.0141414,13.9022199 L33.6459215,13.9022199 L34.0252408,12.7455707 Z" id="Fill-15"></path>
            <path d="M32.5788063,17.1545445 L7.55692147,17.1545445 C7.30587435,17.5345969 7.06252356,17.9197801 6.82686911,18.3108272 L32.1994869,18.3108272 L32.5788063,17.1545445 Z" id="Fill-17"></path>
            <path d="M31.1088796,21.6358639 L5.07914136,21.6358639 C4.90579058,22.0173822 4.73976963,22.4029319 4.58144503,22.7921466 L30.7295602,22.7921466 L31.1088796,21.6358639 Z" id="Fill-19"></path>
            <path d="M45.1939424,4.3611466 L24.0359843,4.3611466 C23.0504869,4.7016178 22.0866126,5.08790052 21.1461937,5.51779581 L48.083733,5.51779581 C47.1436806,5.08790052 46.1794398,4.7016178 45.1939424,4.3611466" id="Fill-21"></path>
            <path d="M53.1424241,8.40883246 L16.0878691,8.40883246 C15.556822,8.77935602 15.0382356,9.16490576 14.531377,9.56548168 L54.6989162,9.56548168 C54.1920576,9.16490576 53.6731047,8.77935602 53.1424241,8.40883246" id="Fill-23"></path>
            <path d="M29.638623,26.1171466 L3.43480105,26.1171466 C3.32595288,26.4993979 3.22370157,26.8853141 3.1287801,27.2734293 L29.2589372,27.2734293 L29.638623,26.1171466 Z" id="Fill-25"></path>
            <path d="M15.5676702,61.2436597 L53.6623298,61.2436597 C53.9859424,61.0080052 54.3044241,60.7672199 54.6185079,60.5209372 L14.6114921,60.5209372 C14.9255759,60.7672199 15.2444241,61.0080052 15.5676702,61.2436597" id="Fill-27"></path>
            <path d="M18.3383874,63.051089 L50.8916859,63.051089 C51.2918953,62.8176335 51.6862408,62.5768482 52.075089,62.3276335 L17.1549843,62.3276335 C17.5438325,62.5768482 17.9385445,62.8176335 18.3383874,63.051089" id="Fill-29"></path>
            <path d="M37.4263979,18.3109372 L62.4032042,18.3109372 C62.1679162,17.9198901 61.9245654,17.5343403 61.6731518,17.1546545 L37.0507435,17.1546545 L37.4263979,18.3109372 Z" id="Fill-31"></path>
            <path d="M21.7762304,64.7858429 L47.4537696,64.7858429 C47.9804188,64.5578848 48.5004712,64.3170995 49.0120942,64.0623874 L20.2179058,64.0623874 C20.7298953,64.3170995 21.2492147,64.5578848 21.7762304,64.7858429" id="Fill-33"></path>
            <path d="M26.5848272,59.469178 L42.8427853,59.4563508 C39.4677592,55.9600157 37.0063979,52.7066649 34.8015812,49.0890209 C32.6015288,52.7605393 29.862733,56.2209581 26.5848272,59.469178" id="Fill-35"></path>
            <path d="M34.8015445,10.0142147 C34.3808115,17.4463089 31.3422251,26.4554188 28.0936387,30.8262042 L28.0973037,30.8148429 L2.46850785,30.8148429 C2.41903141,31.1981937 2.37615183,31.5837435 2.3402356,31.9714921 L27.6930628,31.9714921 L27.6692408,32.0436911 C30.7730628,29.3639005 34.2111257,19.6940052 34.8015445,12.5748953 C35.4161518,19.7200262 39.0301309,29.2814398 41.9272513,32.0436911 L41.9034293,31.9714921 L66.8901309,31.9714921 C66.8542147,31.5837435 66.8109686,31.1981937 66.7614921,30.8148429 L41.5032199,30.8148429 C38.5742147,26.4176702 35.1662042,17.4485079 34.8015445,10.0142147" id="Fill-37"></path>
            <path d="M35.6191885,12.7455707 L35.9944764,13.9022199 L59.2161518,13.9022199 C58.8778796,13.5082408 58.530445,13.1223246 58.1738482,12.7455707 L35.6191885,12.7455707 Z" id="Fill-39"></path>
            <path d="M34.6114817,68.7299215 C15.9881832,68.7299215 0.891272251,53.632644 0.891272251,35.0093455 C0.891272251,16.3856806 15.9881832,1.28876963 34.6114817,1.28876963 C53.2347801,1.28876963 68.3316911,16.3856806 68.3316911,35.0093455 C68.3316911,53.632644 53.2347801,68.7299215 34.6114817,68.7299215 M34.7042042,0.366675393 C15.5373979,0.366675393 -3.66492146e-05,15.9037435 -3.66492146e-05,35.0709162 C-3.66492146e-05,54.2377225 15.5373979,69.7755236 34.7042042,69.7755236 C53.8710105,69.7755236 69.4088115,54.2377225 69.4088115,35.0709162 C69.4088115,15.9037435 53.8710105,0.366675393 34.7042042,0.366675393" id="Fill-41"></path>
        </g>
    </g>
</svg>
