<?xml version="1.0" standalone="no"?>
<!DOCTYPE svg PUBLIC "-//W3C//DTD SVG 20010904//EN"
 "http://www.w3.org/TR/2001/REC-SVG-20010904/DTD/svg10.dtd">
<svg version="1.0" xmlns="http://www.w3.org/2000/svg"
 width="700.000000pt" height="700.000000pt" viewBox="0 0 700.000000 700.000000"
 preserveAspectRatio="xMidYMid meet">
<metadata>
Created by potrace 1.11, written by Peter Selinger 2001-2013
</metadata>
<g transform="translate(0.000000,700.000000) scale(0.100000,-0.100000)"
fill="#000000" stroke="none">
<path d="M3377 6964 c-1 -1 -60 -5 -132 -9 -71 -3 -132 -8 -135 -10 -3 -1 -38
-6 -79 -9 -41 -4 -77 -9 -80 -10 -3 -2 -26 -7 -51 -10 -45 -6 -73 -11 -120
-21 -14 -3 -34 -7 -45 -9 -11 -2 -40 -9 -65 -16 -25 -7 -53 -14 -62 -15 -40
-8 -181 -50 -273 -82 -580 -200 -1113 -565 -1509 -1032 -68 -80 -266 -344
-266 -355 0 -2 -17 -31 -38 -63 -34 -51 -172 -298 -172 -308 0 -1 -18 -41 -39
-87 -104 -220 -205 -534 -246 -763 -23 -126 -33 -190 -41 -260 -4 -33 -9 -73
-11 -90 -9 -61 -10 -523 -2 -605 5 -47 11 -110 14 -140 25 -251 123 -627 230
-885 187 -448 429 -811 769 -1150 387 -386 830 -659 1356 -837 106 -36 359
-102 426 -112 16 -3 57 -10 92 -16 94 -16 206 -30 302 -37 114 -9 411 -9 535
-1 172 12 353 41 551 88 1435 340 2508 1586 2642 3065 14 158 7 579 -12 725
-9 67 -19 137 -22 155 -3 11 -7 36 -10 55 -11 68 -45 216 -70 305 -237 834
-760 1538 -1489 2002 -94 60 -113 70 -265 151 -403 212 -903 351 -1367 378
-100 5 -312 11 -316 8z m373 -105 c145 -16 201 -23 268 -34 43 -7 137 -25 162
-31 14 -3 34 -7 46 -9 75 -16 326 -93 427 -131 121 -46 392 -174 497 -235 694
-404 1220 -1039 1494 -1804 31 -86 102 -338 110 -389 4 -21 8 -41 10 -45 2 -3
7 -24 10 -46 4 -22 13 -80 20 -130 13 -80 21 -151 32 -280 4 -50 4 -407 0
-455 -2 -19 -7 -71 -11 -115 -6 -68 -18 -149 -51 -340 -11 -64 -75 -295 -112
-405 -66 -194 -171 -426 -261 -578 -17 -29 -31 -55 -31 -57 0 -3 -41 -65 -90
-140 -330 -492 -760 -875 -1275 -1135 -204 -103 -240 -119 -419 -182 -118 -41
-348 -107 -428 -122 -80 -15 -148 -26 -178 -30 -19 -3 -51 -7 -70 -10 -19 -3
-66 -8 -105 -12 -38 -3 -86 -8 -105 -10 -55 -5 -400 -5 -450 0 -25 3 -76 8
-115 11 -38 3 -83 8 -100 10 -16 3 -48 7 -70 10 -43 6 -108 18 -220 42 -38 8
-78 16 -88 18 -66 14 -314 95 -432 141 -300 119 -674 339 -885 520 -14 12 -47
41 -75 64 -142 120 -356 348 -487 521 -288 381 -515 876 -603 1314 -29 146
-43 232 -51 305 -2 19 -6 60 -11 90 -10 74 -10 536 0 630 4 41 10 92 12 112
26 244 137 664 235 883 160 358 307 595 560 900 66 81 358 359 450 431 248
192 510 352 730 444 41 18 89 38 105 45 141 62 459 157 605 181 14 3 48 9 75
14 28 5 70 12 95 15 25 3 56 8 70 10 14 2 61 7 105 10 44 4 82 9 83 10 8 7
450 2 522 -6z"/>
<path d="M2404 6562 c-10 -2 -77 -27 -149 -55 l-130 -52 673 -3 c371 -1 973
-1 1339 0 l665 3 -138 55 -139 55 -1051 0 c-577 0 -1059 -1 -1070 -3z"/>
<path d="M1533 6104 c-40 -30 -73 -56 -73 -57 0 -3 3977 -1 3995 2 5 0 -24 26
-65 56 l-75 55 -1855 0 -1855 0 -72 -56z"/>
<path d="M3475 5938 c-2 -7 -6 -50 -10 -96 -4 -45 -8 -93 -10 -105 -2 -12 -11
-69 -20 -127 -9 -58 -25 -148 -36 -201 -11 -52 -21 -106 -24 -119 -14 -70
-100 -373 -140 -490 -106 -310 -248 -618 -363 -790 l-57 -85 -1282 -3 -1283
-2 -5 -23 c-5 -26 -8 -56 -6 -78 1 -14 129 -15 1269 -15 1081 1 1271 3 1286
15 20 17 156 196 156 206 0 4 8 19 19 33 64 91 224 459 294 677 59 185 66 210
106 373 58 233 96 442 100 545 2 70 17 37 30 -65 7 -57 15 -110 16 -118 5 -20
23 -119 29 -150 7 -43 75 -311 97 -385 137 -456 335 -888 491 -1070 l51 -60
1253 -1 1254 0 -6 50 c-3 28 -9 54 -13 58 -4 5 -574 9 -1266 10 l-1260 3 -53
87 c-110 184 -236 456 -330 714 -37 100 -129 387 -137 424 -2 8 -8 35 -15 60
-7 25 -14 52 -15 60 -2 8 -13 58 -25 110 -41 181 -82 449 -84 548 -1 25 -5 28
-11 10z"/>
<path d="M1088 5708 c-8 -9 -31 -35 -51 -58 l-38 -40 1184 0 1183 0 17 53 c9
30 17 56 17 59 0 2 -517 4 -1149 4 -1082 0 -1149 -1 -1163 -18z"/>
<path d="M3570 5708 c0 -10 7 -36 16 -58 l16 -40 1160 0 1160 0 -51 58 -50 57
-1126 1 c-1075 0 -1125 -1 -1125 -18z"/>
<path d="M723 5233 c-18 -29 -33 -55 -33 -58 0 -3 569 -5 1264 -5 l1264 0 10
28 c16 40 22 66 19 77 -1 7 -425 10 -1246 10 l-1244 0 -34 -52z"/>
<path d="M3713 5277 c-2 -4 3 -30 12 -57 l17 -50 1249 0 1249 0 -31 50 c-17
27 -36 53 -42 57 -16 10 -2448 10 -2454 0z"/>
<path d="M3460 5068 c-24 -98 -168 -522 -223 -658 -159 -396 -320 -674 -507
-873 l-62 -67 -1225 0 -1225 0 6 -97 c3 -54 5 -106 5 -115 1 -17 64 -18 1181
-18 l1180 0 83 83 c45 45 112 120 148 167 67 85 199 282 199 295 0 4 8 19 19
33 32 46 145 271 203 407 69 161 144 361 194 522 22 68 42 123 46 123 3 0 9
-14 13 -31 12 -52 119 -337 180 -480 182 -420 375 -738 659 -1081 l31 -38
1165 0 1165 0 1 28 c1 15 3 65 4 112 l3 85 -1206 3 -1205 2 -55 63 c-171 198
-327 479 -504 912 -63 154 -173 451 -223 603 -14 39 -27 72 -30 72 -4 0 -12
-24 -20 -52z"/>
<path d="M484 4782 c-13 -30 -24 -56 -24 -58 0 -1 588 -2 1306 -1 l1307 2 12
35 c7 19 15 44 19 56 l6 21 -1301 0 -1301 0 -24 -55z"/>
<path d="M3861 4831 c-5 -4 -1 -28 11 -58 l19 -52 1285 0 c998 0 1284 2 1283
12 0 7 -10 32 -22 57 l-22 45 -1272 1 c-700 0 -1276 -2 -1282 -5z"/>
<path d="M3477 4543 c-3 -4 -35 -80 -72 -168 -240 -572 -508 -1009 -800 -1302
l-102 -102 -984 0 c-541 0 -1046 -1 -1121 -1 l-137 0 5 -27 c14 -80 46 -221
53 -239 l9 -21 1039 0 1038 0 79 76 c43 42 103 102 135 135 31 32 62 65 69 72
108 112 306 365 413 529 131 199 282 485 350 663 13 34 27 62 31 62 4 0 10
-10 14 -22 14 -47 139 -296 211 -422 199 -348 456 -691 738 -985 l104 -108
1026 0 1025 0 6 26 c3 14 10 42 15 61 15 63 39 194 35 197 -2 2 -498 4 -1102
4 l-1099 0 -65 67 c-92 95 -142 153 -225 262 -71 94 -215 305 -215 314 0 3
-15 29 -34 58 -86 135 -275 508 -375 741 -32 76 -61 135 -64 130z"/>
<path d="M328 4335 c-9 -31 -13 -57 -9 -59 3 -2 592 -4 1307 -4 l1302 0 11 42
c7 22 15 49 17 59 5 16 -62 17 -1304 17 l-1309 0 -15 -55z"/>
<path d="M4004 4373 c2 -10 10 -37 17 -60 l12 -41 1283 0 c706 0 1286 3 1288
7 3 4 -2 31 -10 59 l-16 52 -1289 0 c-1224 0 -1290 -1 -1285 -17z"/>
<path d="M3394 3712 c-279 -571 -621 -1003 -999 -1262 l-80 -55 -948 0 c-694
0 -947 -3 -947 -11 0 -19 68 -182 128 -307 l56 -117 783 0 783 0 86 55 c471
304 872 771 1177 1373 23 45 44 82 47 82 3 0 18 -24 34 -53 337 -602 754
-1092 1189 -1399 l82 -58 766 0 765 0 36 73 c82 166 160 348 152 357 -3 2
-423 4 -933 5 l-929 0 -83 64 c-76 58 -325 299 -390 377 -215 255 -423 565
-604 897 -44 80 -82 146 -85 146 -3 0 -42 -75 -86 -167z"/>
<path d="M3470 3123 c0 -34 -193 -339 -295 -468 -255 -319 -614 -641 -1001
-898 l-99 -65 -635 0 c-349 -1 -643 -1 -652 -1 -50 -2 337 -462 507 -602 l41
-34 279 1 c286 1 305 3 435 46 193 64 532 278 765 483 17 15 62 54 100 88 74
65 428 416 508 505 26 28 52 52 57 52 5 0 33 -26 62 -57 107 -115 416 -422
508 -504 374 -333 680 -523 970 -600 29 -8 139 -12 310 -13 l265 -1 145 143
c80 78 162 165 183 191 21 27 46 58 55 68 27 29 105 133 141 186 20 29 27 47
19 48 -7 0 -295 1 -640 1 l-627 0 -128 90 c-567 401 -942 787 -1198 1233 -60
105 -75 127 -75 108z"/>
<path d="M3425 2003 c-111 -176 -281 -410 -407 -559 -25 -29 -179 -206 -188
-214 -3 -3 -42 -44 -88 -91 l-83 -86 811 1 c445 0 810 2 810 4 0 3 -10 14 -22
26 -22 21 -186 201 -238 262 -145 168 -314 396 -444 597 -49 75 -92 137 -96
137 -3 0 -29 -35 -55 -77z"/>
<path d="M1495 924 c17 -14 41 -31 55 -38 20 -10 409 -12 1910 -10 1037 1
1892 2 1900 3 8 1 35 17 59 36 l44 35 -1999 0 -1999 -1 30 -25z"/>
<path d="M1730 765 c0 -2 21 -18 48 -36 l47 -33 1630 -1 1630 -1 58 34 c31 19
57 35 57 37 0 1 -781 2 -1735 3 -954 0 -1735 -1 -1735 -3z"/>
<path d="M2030 592 c0 -2 33 -18 73 -36 l73 -34 1284 0 1284 -1 73 34 c40 19
73 35 73 37 0 2 -643 3 -1430 3 -786 0 -1430 -1 -1430 -3z"/>
<path d="M2655 357 l110 -31 670 -3 670 -3 135 34 135 34 -915 0 -915 0 110
-31z"/>
</g>
</svg>
